<?xml version="1.0" encoding="UTF-8"?>
<svg id="Calque_2" data-name="Calque 2" xmlns="http://www.w3.org/2000/svg" viewBox="0 0 32 32">
  <defs>
    <style>
      .cls-1 {
        fill: #101319;
      }

      .cls-2 {
        fill: #0042ff;
      }
    </style>
  </defs>
  <g id="Calque_2-2" data-name="Calque 2">
    <g>
      <circle class="cls-1" cx="16" cy="16" r="16"/>
      <path class="cls-2" d="M23.37,21.52c-.5,3.64-4.82,4.86-7.32,2.21-.11-.02-.81.63-1.01.75-2.72,1.69-5.93.11-6.4-2.96-3.97-1-4.42-7.47-1.87-9.98.41-.4,1.76-1.07,1.83-1.17.17-.23.34-1.05.56-1.45,1.41-2.56,4.86-2.75,6.8-.67,1.93-1.77,4.69-2.06,6.49.07.58.68.74,1.82,1,2.12.14.16.99.46,1.31.69,3.09,2.19,2.75,9.4-1.39,10.39ZM13.85,9.32c-.53-.37-1.23-.5-1.86-.27-.56.2-1.01.68-1.19,1.25-.16.51.06,1.24-.23,1.7-.3.46-1.18.37-1.63.54-.88.32-1.31,1.31-1.5,2.16-.32,1.45-.2,3.89,1.31,4.68.51.27,1.59.26,1.82.62.22.34.05,1.08.18,1.6.31,1.19,1.61,1.74,2.71,1.27.72-.31,1.27-.97,1.17-1.78-.08-.71-.42-1.37-.7-2.02-.4-.92-.8-1.85-1.19-2.77-.34-.8-.9-1.65-.82-2.54.03-.39.23-.78.57-.98.59-.34,1.16.13,1.44.64,1.42,2.57,2.2,6.1,3.6,8.75.4.76,1.51,1.05,2.28.83.43-.13.8-.4,1.07-.76.33-.45.34-.83.33-1.36,0-.59.05-1.2.73-1.34.25-.05.51-.04.76-.08.63-.11,1.15-.6,1.45-1.17.36-.7.46-1.52.47-2.29.01-.69-.03-1.39-.3-2.03-.51-1.2-1.62-1.49-2.82-1.6-.31-.73-.11-1.56-.53-2.28-.22-.38-.56-.68-.95-.9-.69-.39-1.37-.33-1.99.16-.79.62-.9,1.4-.53,2.3.83,2.05,1.65,4.11,2.48,6.16.05.12.1.24.1.37,0,.15-.04.29-.1.42-.33.73-1.18.93-1.76.32-.25-.26-.36-.61-.48-.96-.64-1.92-1.54-3.72-2.32-5.58-.33-.8-.5-1.68-.95-2.43-.15-.25-.36-.47-.6-.64Z"/>
    </g>
  </g>
</svg>