<?xml version="1.0" encoding="UTF-8"?>
<svg id="Calque_2" data-name="Calque 2" xmlns="http://www.w3.org/2000/svg" viewBox="0 0 167.38 141.96">
  <defs>
    <style>
      .cls-1 {
        fill: #0042ff;
      }
    </style>
  </defs>
  <g id="Calque_2-2" data-name="Calque 2">
    <path class="cls-1" d="M140.69,113.71c-3.89,28.16-37.33,37.64-56.66,17.11-.87-.15-6.3,4.89-7.79,5.82-21.01,13.05-45.87.84-49.5-22.92C-3.95,105.97-7.44,55.94,12.25,36.48c3.14-3.11,13.61-8.27,14.2-9.04,1.31-1.74,2.62-8.11,4.31-11.18,10.91-19.84,37.57-21.26,52.65-5.19,14.91-13.69,36.31-15.96,50.22.51,4.47,5.29,5.72,14.1,7.72,16.39,1.07,1.23,7.65,3.58,10.15,5.35,23.88,16.91,21.29,72.75-10.79,80.41ZM67.01,19.26c-4.13-2.86-9.53-3.85-14.4-2.07-4.32,1.58-7.84,5.27-9.21,9.67-1.24,3.98.48,9.61-1.8,13.15-2.29,3.56-9.09,2.86-12.65,4.14-6.78,2.44-10.12,10.15-11.58,16.68-2.5,11.2-1.56,30.06,10.11,36.22,3.97,2.09,12.31,1.98,14.12,4.82,1.68,2.65.36,8.39,1.39,12.38,2.38,9.2,12.47,13.5,20.97,9.84,5.56-2.4,9.81-7.48,9.08-13.73-.65-5.53-3.26-10.6-5.43-15.64-3.08-7.16-6.16-14.31-9.24-21.47-2.66-6.18-6.94-12.76-6.38-19.67.25-3.02,1.76-6.05,4.4-7.55,4.6-2.61,8.98,1.02,11.15,4.94,11.02,19.88,16.99,47.16,27.84,67.7,3.11,5.88,11.71,8.16,17.68,6.4,3.3-.97,6.21-3.1,8.24-5.86,2.56-3.46,2.61-6.42,2.55-10.54-.06-4.54.39-9.27,5.66-10.34,1.92-.39,3.92-.27,5.85-.62,4.9-.87,8.91-4.66,11.18-9.08,2.77-5.39,3.56-11.75,3.67-17.74.1-5.33-.27-10.79-2.35-15.7-3.94-9.31-12.56-11.5-21.81-12.39-2.41-5.66-.84-12.05-4.07-17.62-1.71-2.95-4.37-5.29-7.34-6.97-5.34-3.01-10.61-2.53-15.4,1.24-6.1,4.8-6.93,10.86-4.14,17.8,6.4,15.89,12.8,31.78,19.2,47.67.37.92.75,1.87.79,2.86.05,1.14-.34,2.25-.81,3.28-2.56,5.65-9.14,7.2-13.65,2.47-1.92-2.01-2.81-4.76-3.7-7.39-4.98-14.84-11.92-28.77-17.95-43.18-2.59-6.19-3.83-12.97-7.32-18.77-1.18-1.97-2.79-3.64-4.66-4.94Z"/>
  </g>
</svg>