<?xml version="1.0" encoding="UTF-8"?>
<svg id="Calque_2" data-name="Calque 2" xmlns="http://www.w3.org/2000/svg" viewBox="0 0 481.93 58.54">
  <defs>
    <style>
      .cls-1 {
        fill: #fff;
      }

      .cls-2 {
        fill: #0042ff;
      }
    </style>
  </defs>
  <g id="Calque_2-2" data-name="Calque 2">
    <g>
      <path class="cls-1" d="M0,1.13h9.84l11.77,26.53,4.51,11.53.24-.24c-.38-3.12-.7-6.68-.97-10.68-.27-4-.4-7.32-.4-9.96V1.13h9.76v56.44h-9.84l-10.88-24.51-1.45-3.87c-.38-.91-1.64-4.22-3.79-9.92l-.24.24c.38,3.12.67,6.77.89,10.97.21,4.19.32,7.82.32,10.88v16.21H0V1.13Z"/>
      <path class="cls-1" d="M74.58,48.21v9.35h-29.19V1.13h28.38v9.35h-18.46v13.95h16.93v9.03h-16.93v14.75h19.27Z"/>
      <path class="cls-1" d="M86.47,53.58c-3.04-3.25-4.56-7.78-4.56-13.59V1.13h10.08v38.86c0,2.9.62,5.11,1.85,6.61,1.24,1.51,2.98,2.26,5.24,2.26s4-.75,5.24-2.26c1.24-1.5,1.85-3.71,1.85-6.61V1.13h10.08v38.86c0,5.81-1.52,10.33-4.56,13.59-3.04,3.25-7.24,4.88-12.62,4.88s-9.58-1.62-12.62-4.88Z"/>
      <path class="cls-1" d="M140.37,37.89h-4.52v19.67h-9.92V1.13h15.48c5.54,0,9.82,1.6,12.86,4.8,3.04,3.2,4.55,7.67,4.55,13.42,0,4.09-.77,7.55-2.3,10.4-1.53,2.85-3.72,4.97-6.57,6.37l11.37,21.45h-10.88l-10.08-19.67ZM135.85,28.46h5.48c2.37,0,4.18-.77,5.44-2.3,1.26-1.53,1.9-3.78,1.9-6.73s-.63-5.11-1.9-6.61c-1.26-1.5-3.08-2.26-5.44-2.26h-5.48v17.9Z"/>
      <path class="cls-1" d="M170.65,53.46c-3.14-3.39-4.72-8.06-4.72-14.03v-20.16c0-5.97,1.57-10.64,4.72-14.03,3.14-3.39,7.51-5.08,13.1-5.08s9.88,1.69,13.02,5.08c3.14,3.39,4.72,8.06,4.72,14.03v20.16c0,5.97-1.57,10.64-4.72,14.03-3.14,3.39-7.49,5.08-13.02,5.08s-9.96-1.69-13.1-5.08ZM189.35,46.48c1.26-1.64,1.89-3.99,1.89-7.05v-20.16c0-3.12-.63-5.48-1.89-7.1-1.26-1.61-3.13-2.42-5.6-2.42s-4.35.82-5.64,2.46c-1.29,1.64-1.94,3.99-1.94,7.05v20.16c0,3.06.65,5.42,1.94,7.05,1.29,1.64,3.17,2.46,5.64,2.46s4.34-.82,5.6-2.46Z"/>
    </g>
    <g>
      <path class="cls-2" d="M242.14,10.56h-11.37v47.01h-10.16V10.56h-11.37V1.13h32.9v9.43Z"/>
      <path class="cls-2" d="M262.54,37.9h-4.52v19.67h-9.92V1.13h15.48c5.54,0,9.82,1.6,12.86,4.8,3.04,3.2,4.55,7.67,4.55,13.42,0,4.09-.77,7.55-2.3,10.4-1.53,2.85-3.72,4.97-6.57,6.37l11.37,21.45h-10.88l-10.08-19.67ZM258.03,28.46h5.48c2.37,0,4.18-.77,5.44-2.3,1.26-1.53,1.9-3.78,1.9-6.73s-.63-5.11-1.9-6.61c-1.26-1.5-3.08-2.26-5.44-2.26h-5.48v17.9Z"/>
      <path class="cls-2" d="M310.59,47.33h-13.22l-2.26,10.24h-10.32l13.87-56.44h10.64l13.87,56.44h-10.32l-2.26-10.24ZM308.58,37.9l-2.26-10.48c-.43-2.15-1.18-6.77-2.26-13.87h-.24c-.75,5.86-1.48,10.48-2.18,13.87l-2.26,10.48h9.19Z"/>
      <path class="cls-2" d="M330.63,53.9c-2.98-3.09-4.47-7.51-4.47-13.26v-22.58c0-5.81,1.49-10.27,4.47-13.38,2.98-3.12,7.14-4.68,12.46-4.68s9.55,1.55,12.54,4.64c2.98,3.09,4.61,7.51,4.88,13.26h-9.92c-.16-2.9-.86-5.01-2.1-6.33-1.24-1.32-3.06-1.98-5.48-1.98-2.1,0-3.72.7-4.88,2.1-1.16,1.4-1.73,3.52-1.73,6.37v22.58c0,2.8.58,4.88,1.73,6.25,1.16,1.37,2.81,2.06,4.96,2.06,2.47,0,4.33-.66,5.56-1.98,1.24-1.32,1.96-3.37,2.18-6.17h9.92c-.22,5.7-1.84,10.08-4.88,13.14-3.04,3.06-7.3,4.6-12.78,4.6s-9.47-1.54-12.46-4.64Z"/>
      <path class="cls-2" d="M381.14,34.59l-3.47,5.4v17.58h-9.76V1.13h9.76v23.14l3.31-6.61,9.43-16.53h11.45l-15.16,24.59,17.58,31.85h-11.29l-11.85-22.98Z"/>
      <path class="cls-2" d="M438.23,48.22v9.35h-29.19V1.13h28.38v9.35h-18.46v13.95h16.93v9.03h-16.93v14.75h19.27Z"/>
      <path class="cls-2" d="M460.96,37.9h-4.52v19.67h-9.92V1.13h15.48c5.54,0,9.82,1.6,12.86,4.8,3.04,3.2,4.55,7.67,4.55,13.42,0,4.09-.77,7.55-2.3,10.4-1.53,2.85-3.72,4.97-6.57,6.37l11.37,21.45h-10.88l-10.08-19.67ZM456.45,28.46h5.48c2.37,0,4.18-.77,5.44-2.3,1.26-1.53,1.9-3.78,1.9-6.73s-.63-5.11-1.9-6.61c-1.26-1.5-3.08-2.26-5.44-2.26h-5.48v17.9Z"/>
    </g>
  </g>
</svg>